<svg width="24" height="24" viewBox="0 0 24 24" fill="none" xmlns="http://www.w3.org/2000/svg">
<path d="M7.1887 4.00763C7.19369 4.21864 7.28186 4.41914 7.43401 4.56544L14.8684 11.9998L7.43401 19.4342C7.35738 19.5087 7.29646 19.5979 7.25486 19.6964C7.21327 19.7949 7.19183 19.9007 7.19182 20.0076C7.19187 20.1668 7.23937 20.3223 7.32826 20.4543C7.41715 20.5863 7.54339 20.6888 7.69084 20.7487C7.83829 20.8086 8.00025 20.8231 8.15601 20.7905C8.31177 20.7578 8.45426 20.6795 8.56526 20.5654L16.5653 12.5654C16.7152 12.4154 16.7995 12.2119 16.7995 11.9998C16.7995 11.7877 16.7152 11.5842 16.5653 11.4342L8.56526 3.43419C8.45354 3.31801 8.30933 3.23828 8.15153 3.20545C7.99372 3.17261 7.82968 3.18821 7.68089 3.25019C7.5321 3.31217 7.4055 3.41765 7.31768 3.5528C7.22985 3.68796 7.1849 3.84649 7.1887 4.00763Z" fill="white"/>
</svg>
