<svg width="24" height="24" viewBox="0 0 24 24" fill="none" xmlns="http://www.w3.org/2000/svg">
<path d="M19.9923 7.18907C19.7812 7.19405 19.5807 7.28223 19.4344 7.43438L12.0001 14.8688L4.56569 7.43438C4.49114 7.35774 4.40198 7.29683 4.30349 7.25523C4.205 7.21363 4.09917 7.1922 3.99225 7.19219C3.83311 7.19223 3.67759 7.23974 3.54558 7.32863C3.41357 7.41752 3.31107 7.54376 3.25119 7.69121C3.1913 7.83866 3.17675 8.00062 3.20939 8.15638C3.24204 8.31214 3.32039 8.45463 3.43444 8.56563L11.4344 16.5656C11.5845 16.7156 11.7879 16.7998 12.0001 16.7998C12.2122 16.7998 12.4157 16.7156 12.5657 16.5656L20.5657 8.56563C20.6819 8.45391 20.7616 8.3097 20.7944 8.15189C20.8273 7.99409 20.8117 7.83005 20.7497 7.68126C20.6877 7.53247 20.5822 7.40587 20.4471 7.31804C20.3119 7.23022 20.1534 7.18526 19.9923 7.18907Z" fill="white"/>
</svg>
